<?xml version="1.0" encoding="utf-8"?>
<!-- Generator: Adobe Illustrator 22.1.0, SVG Export Plug-In . SVG Version: 6.00 Build 0)  -->
<svg version="1.1" id="Layer_1" xmlns="http://www.w3.org/2000/svg" xmlns:xlink="http://www.w3.org/1999/xlink" x="0px" y="0px"
	 viewBox="0 0 610 610" style="enable-background:new 0 0 610 610;" xml:space="preserve">
<style type="text/css">
	.st0{fill:none;stroke:#3660AC;stroke-width:50;stroke-linecap:round;stroke-miterlimit:10;}
	.st1{fill:#3660AC;}
	.st2{fill:#FFFFFF;stroke:#3660AC;stroke-width:30;stroke-linecap:round;stroke-miterlimit:10;}
	.st3{fill:none;}
	.st4{fill:none;stroke:#3660AC;stroke-width:20;stroke-miterlimit:10;}
</style>
<path class="st0" d="M39,339c0,0,50-140,216-144s216,144,216,144 M39,337.9c0,0,50,140,216,144s216-144,216-144"/>
<g>
	<path class="st1" d="M255,255c-8.8,0-17.3,1.4-25.3,3.9c5.2,6.6,8.3,15,8.3,24.1c0,21.5-17.5,39-39,39c-9.1,0-17.5-3.1-24.1-8.3
		c-2.5,8-3.9,16.5-3.9,25.3c0,46.4,37.6,84,84,84s84-37.6,84-84S301.4,255,255,255z"/>
</g>
<circle class="st2" cx="459.5" cy="239.5" r="111.5"/>
<g>
	<line class="st3" x1="516.3" y1="239.6" x2="402.8" y2="239.5"/>
	<g>
		<line class="st4" x1="466" y1="239.6" x2="402.8" y2="239.5"/>
		<g>
			<polygon class="st1" points="455.9,274.4 516.3,239.6 455.9,204.6 			"/>
		</g>
	</g>
</g>
</svg>
