<?xml version="1.0" encoding="utf-8"?>
<!-- Generator: Adobe Illustrator 22.1.0, SVG Export Plug-In . SVG Version: 6.00 Build 0)  -->
<svg version="1.1" id="Layer_1" xmlns="http://www.w3.org/2000/svg" xmlns:xlink="http://www.w3.org/1999/xlink" x="0px" y="0px"
	 viewBox="0 0 786.9 500.9" style="enable-background:new 0 0 786.9 500.9;" xml:space="preserve">
<style type="text/css">
	.st0{fill:url(#SVGID_1_);stroke:#E2CF5A;stroke-width:8;stroke-miterlimit:10;}
	.st1{fill:url(#SVGID_2_);stroke:#E2CF5A;stroke-width:8;stroke-miterlimit:10;}
	.st2{fill:#FFFFFF;stroke:#E2CF5A;stroke-width:8;stroke-miterlimit:10;}
	.st3{fill:url(#SVGID_3_);stroke:#E2CF5A;stroke-width:8;stroke-miterlimit:10;}
	.st4{fill:url(#SVGID_4_);stroke:#E2CF5A;stroke-width:8;stroke-miterlimit:10;}
</style>
<g>
	
		<linearGradient id="SVGID_1_" gradientUnits="userSpaceOnUse" x1="119.5" y1="-227.6" x2="378" y2="-227.6" gradientTransform="matrix(1 0 0 1 0 400)">
		<stop  offset="0" style="stop-color:#000000"/>
		<stop  offset="1" style="stop-color:#757575"/>
	</linearGradient>
	<path class="st0" d="M119.5,197.6v36.8h104.3c7.1,0,14.1-2.5,19.5-7l2.1-1.7c12.3-10.2,14.1-28.3,4-40.7l-26.9-33
		c-1-1.2-0.1-3,1.4-3h73.2v87.2h42.5V149H378v-40.4H204.6c-9.7,0-19,3.3-26.5,9.3l0,0c-11.5,9.2-13.6,26-4.5,37.7l27.4,35.5
		c1.9,2.5,0.1,6.1-3,6.1L119.5,197.6z"/>
	
		<linearGradient id="SVGID_2_" gradientUnits="userSpaceOnUse" x1="370" y1="-227.65" x2="667.8" y2="-227.65" gradientTransform="matrix(1 0 0 1 0 400)">
		<stop  offset="0" style="stop-color:#757575"/>
		<stop  offset="1" style="stop-color:#000000"/>
	</linearGradient>
	<path class="st1" d="M370,234.7l41.1-126.2h59.8l35.3,105.1c0.9,2.8,5.1,2.2,5.1-0.9V110h87.2c0,0,36,10.1,33.2,40.4
		c0,0,3.6,31.7-34.6,34.6l10.1,13.7h60.6v37.5h-74.3l-38.9-42.5v41.1h-89.4l-6.5-23.1h-38.9l-7.2,24.5L370,234.7z"/>
	<polygon class="st2" points="439.9,138.9 421.9,187.9 458.7,187.9 	"/>
	<g>
		
			<linearGradient id="SVGID_3_" gradientUnits="userSpaceOnUse" x1="119.2" y1="-70.1" x2="297.9" y2="-70.1" gradientTransform="matrix(1 0 0 1 0 400)">
			<stop  offset="0" style="stop-color:#000000"/>
			<stop  offset="1" style="stop-color:#757575"/>
		</linearGradient>
		<polygon class="st3" points="119.2,267.5 157.4,392.3 198.4,392.3 211.4,339.6 226.6,392.3 267.7,392.3 297.9,267.5 256.8,267.5 
			246.7,320.9 229.4,267.5 192,267.5 178.3,322.3 160.2,267.5 		"/>
		
			<linearGradient id="SVGID_4_" gradientUnits="userSpaceOnUse" x1="279.2" y1="-70.1" x2="667.8" y2="-70.1" gradientTransform="matrix(1 0 0 1 0 400)">
			<stop  offset="0" style="stop-color:#757575"/>
			<stop  offset="1" style="stop-color:#000000"/>
		</linearGradient>
		<path class="st4" d="M321,267.5h60.6l38.6,113.9c0.3,0.9,1.7,0.7,1.7-0.3V267.5h86.5c0,0,35.3,6.5,33.2,39.6c0,0,0.7,30.9-32,35
			c-1.2,0.1-1.7,1.4-1.1,2.4l5,6.9c1.8,2.5,4.6,4,7.7,4h64.5c0.9,0,1.7-0.2,2.4-0.6l0,0c2.4-1.5,2.8-4.8,0.8-6.8L564,322.3
			c0,0-10.1-7.2-9.4-29.6c0,0,0.7-21.6,19.5-25.2h93.7V305l-57.1-0.6c-3,0-4.7,3.5-2.7,5.8l23.6,27.2c5.8,6.6,9.4,14.9,10.1,23.6
			c0.6,8.1-1.2,17.5-10.1,24.1c0,0-0.1,0.1-0.5,0.3c-8.1,4.5-17.4,6.9-26.7,6.9H509c-3.6,0-7.1-1.5-9.5-4.2l-33-36.3
			c-0.5-0.5-1.4-0.2-1.4,0.5v39.9h-90l-5-23.8l-38.2-0.7l-7.9,24.5h-44.8L321,267.5z"/>
		<polygon class="st2" points="350.6,295.7 332.5,344.7 370,344.7 		"/>
		<path class="st2" d="M465.2,297.8v24.5h30.3c2.7,0,5.1-1.3,6.6-3.5l0,0c3.7-5.3,4.1-12.5,0.7-18.1l0,0c-1.1-1.9-3-3-5.2-3h-32.4
			V297.8z"/>
	</g>
	<path class="st2" d="M553.5,134.9v24.5h30.3c2.7,0,5.1-1.3,6.6-3.5l0,0c3.7-5.3,4.1-12.5,0.7-18.1l0,0c-1.1-1.9-3-3-5.2-3h-32.4
		V134.9z"/>
</g>
</svg>
